<svg width="120" height="39" viewBox="0 0 120 39" fill="none" xmlns="http://www.w3.org/2000/svg">
<path d="M55.634 17.216C54.638 17.216 53.672 17.084 52.736 16.82C51.812 16.544 51.068 16.19 50.504 15.758L51.494 13.562C52.034 13.958 52.676 14.276 53.42 14.516C54.164 14.756 54.908 14.876 55.652 14.876C56.48 14.876 57.092 14.756 57.488 14.516C57.884 14.264 58.082 13.934 58.082 13.526C58.082 13.226 57.962 12.98 57.722 12.788C57.494 12.584 57.194 12.422 56.822 12.302C56.462 12.182 55.97 12.05 55.346 11.906C54.386 11.678 53.6 11.45 52.988 11.222C52.376 10.994 51.848 10.628 51.404 10.124C50.972 9.62 50.756 8.948 50.756 8.108C50.756 7.376 50.954 6.716 51.35 6.128C51.746 5.528 52.34 5.054 53.132 4.706C53.936 4.358 54.914 4.184 56.066 4.184C56.87 4.184 57.656 4.28 58.424 4.472C59.192 4.664 59.864 4.94 60.44 5.3L59.54 7.514C58.376 6.854 57.212 6.524 56.048 6.524C55.232 6.524 54.626 6.656 54.23 6.92C53.846 7.184 53.654 7.532 53.654 7.964C53.654 8.396 53.876 8.72 54.32 8.936C54.776 9.14 55.466 9.344 56.39 9.548C57.35 9.776 58.136 10.004 58.748 10.232C59.36 10.46 59.882 10.82 60.314 11.312C60.758 11.804 60.98 12.47 60.98 13.31C60.98 14.03 60.776 14.69 60.368 15.29C59.972 15.878 59.372 16.346 58.568 16.694C57.764 17.042 56.786 17.216 55.634 17.216ZM67.6525 14.894C68.1565 14.894 68.6005 14.822 68.9845 14.678C69.3805 14.522 69.7465 14.282 70.0825 13.958L71.5765 15.578C70.6645 16.622 69.3325 17.144 67.5805 17.144C66.4885 17.144 65.5225 16.934 64.6825 16.514C63.8425 16.082 63.1945 15.488 62.7385 14.732C62.2825 13.976 62.0545 13.118 62.0545 12.158C62.0545 11.21 62.2765 10.358 62.7205 9.602C63.1765 8.834 63.7945 8.24 64.5745 7.82C65.3665 7.388 66.2545 7.172 67.2385 7.172C68.1625 7.172 69.0025 7.37 69.7585 7.766C70.5145 8.15 71.1145 8.714 71.5585 9.458C72.0145 10.19 72.2425 11.06 72.2425 12.068L65.0785 13.454C65.2825 13.934 65.6005 14.294 66.0325 14.534C66.4765 14.774 67.0165 14.894 67.6525 14.894ZM67.2385 9.296C66.5305 9.296 65.9545 9.524 65.5105 9.98C65.0665 10.436 64.8325 11.066 64.8085 11.87L69.5245 10.952C69.3925 10.448 69.1225 10.046 68.7145 9.746C68.3065 9.446 67.8145 9.296 67.2385 9.296ZM76.812 8.594C77.148 8.126 77.598 7.772 78.162 7.532C78.738 7.292 79.398 7.172 80.142 7.172V9.764C79.83 9.74 79.62 9.728 79.512 9.728C78.708 9.728 78.078 9.956 77.622 10.412C77.166 10.856 76.938 11.528 76.938 12.428V17H74.13V7.316H76.812V8.594ZM87.6976 7.172C88.8976 7.172 89.8636 7.532 90.5956 8.252C91.3396 8.972 91.7116 10.04 91.7116 11.456V17H88.9036V11.888C88.9036 11.12 88.7356 10.55 88.3996 10.178C88.0636 9.794 87.5776 9.602 86.9416 9.602C86.2336 9.602 85.6696 9.824 85.2496 10.268C84.8296 10.7 84.6196 11.348 84.6196 12.212V17H81.8116V3.644H84.6196V8.324C84.9916 7.952 85.4416 7.67 85.9696 7.478C86.4976 7.274 87.0736 7.172 87.6976 7.172ZM94.2569 7.316H97.0649V17H94.2569V7.316ZM95.6609 5.966C95.1449 5.966 94.7249 5.816 94.4009 5.516C94.0769 5.216 93.9149 4.844 93.9149 4.4C93.9149 3.956 94.0769 3.584 94.4009 3.284C94.7249 2.984 95.1449 2.834 95.6609 2.834C96.1769 2.834 96.5969 2.978 96.9209 3.266C97.2449 3.554 97.4069 3.914 97.4069 4.346C97.4069 4.814 97.2449 5.204 96.9209 5.516C96.5969 5.816 96.1769 5.966 95.6609 5.966ZM99.671 7.316H102.479V17H99.671V7.316ZM101.075 5.966C100.559 5.966 100.139 5.816 99.815 5.516C99.491 5.216 99.329 4.844 99.329 4.4C99.329 3.956 99.491 3.584 99.815 3.284C100.139 2.984 100.559 2.834 101.075 2.834C101.591 2.834 102.011 2.978 102.335 3.266C102.659 3.554 102.821 3.914 102.821 4.346C102.821 4.814 102.659 5.204 102.335 5.516C102.011 5.816 101.591 5.966 101.075 5.966Z" fill="white"/>
<path d="M60.3225 30.4605L58.6305 32.2245V35.4105H55.7325V22.8105H58.6305V28.6965L64.2105 22.8105H67.4505L62.2305 28.4265L67.7565 35.4105H64.3545L60.3225 30.4605ZM73.0624 35.5545C72.0424 35.5545 71.1244 35.3445 70.3084 34.9245C69.5044 34.4925 68.8744 33.8985 68.4184 33.1425C67.9624 32.3865 67.7344 31.5285 67.7344 30.5685C67.7344 29.6085 67.9624 28.7505 68.4184 27.9945C68.8744 27.2385 69.5044 26.6505 70.3084 26.2305C71.1244 25.7985 72.0424 25.5825 73.0624 25.5825C74.0824 25.5825 74.9944 25.7985 75.7984 26.2305C76.6024 26.6505 77.2324 27.2385 77.6884 27.9945C78.1444 28.7505 78.3724 29.6085 78.3724 30.5685C78.3724 31.5285 78.1444 32.3865 77.6884 33.1425C77.2324 33.8985 76.6024 34.4925 75.7984 34.9245C74.9944 35.3445 74.0824 35.5545 73.0624 35.5545ZM73.0624 33.2505C73.7824 33.2505 74.3704 33.0105 74.8264 32.5305C75.2944 32.0385 75.5284 31.3845 75.5284 30.5685C75.5284 29.7525 75.2944 29.1045 74.8264 28.6245C74.3704 28.1325 73.7824 27.8865 73.0624 27.8865C72.3424 27.8865 71.7484 28.1325 71.2804 28.6245C70.8124 29.1045 70.5784 29.7525 70.5784 30.5685C70.5784 31.3845 70.8124 32.0385 71.2804 32.5305C71.7484 33.0105 72.3424 33.2505 73.0624 33.2505ZM86.0814 34.9425C85.8054 35.1465 85.4634 35.3025 85.0554 35.4105C84.6594 35.5065 84.2454 35.5545 83.8134 35.5545C82.6494 35.5545 81.7554 35.2605 81.1314 34.6725C80.5074 34.0845 80.1954 33.2205 80.1954 32.0805V23.5845H83.0034V25.9425H85.3974V28.1025H83.0034V32.0445C83.0034 32.4525 83.1054 32.7705 83.3094 32.9985C83.5134 33.2145 83.8074 33.3225 84.1914 33.3225C84.6234 33.3225 85.0074 33.2025 85.3434 32.9625L86.0814 34.9425ZM91.1413 35.5545C90.0493 35.5545 89.1973 35.2665 88.5853 34.6905C87.9733 34.1025 87.6673 33.2745 87.6673 32.2065V22.0545H90.4753V32.0445C90.4753 32.4525 90.5773 32.7705 90.7813 32.9985C90.9973 33.2145 91.2973 33.3225 91.6813 33.3225C91.8253 33.3225 91.9693 33.3045 92.1133 33.2685C92.2693 33.2325 92.3893 33.1905 92.4733 33.1425L92.5993 35.3205C92.1313 35.4765 91.6453 35.5545 91.1413 35.5545ZM93.9779 25.7265H96.7859V35.4105H93.9779V25.7265ZM95.3819 24.3765C94.8659 24.3765 94.4459 24.2265 94.1219 23.9265C93.7979 23.6265 93.6359 23.2545 93.6359 22.8105C93.6359 22.3665 93.7979 21.9945 94.1219 21.6945C94.4459 21.3945 94.8659 21.2445 95.3819 21.2445C95.8979 21.2445 96.3179 21.3885 96.6419 21.6765C96.9659 21.9645 97.1279 22.3245 97.1279 22.7565C97.1279 23.2245 96.9659 23.6145 96.6419 23.9265C96.3179 24.2265 95.8979 24.3765 95.3819 24.3765ZM109.22 25.7265V35.4105H106.538V34.2945C105.842 35.1345 104.834 35.5545 103.514 35.5545C102.602 35.5545 101.774 35.3505 101.03 34.9425C100.298 34.5345 99.7219 33.9525 99.3019 33.1965C98.8819 32.4405 98.6719 31.5645 98.6719 30.5685C98.6719 29.5725 98.8819 28.6965 99.3019 27.9405C99.7219 27.1845 100.298 26.6025 101.03 26.1945C101.774 25.7865 102.602 25.5825 103.514 25.5825C104.75 25.5825 105.716 25.9725 106.412 26.7525V25.7265H109.22ZM104 33.2505C104.708 33.2505 105.296 33.0105 105.764 32.5305C106.232 32.0385 106.466 31.3845 106.466 30.5685C106.466 29.7525 106.232 29.1045 105.764 28.6245C105.296 28.1325 104.708 27.8865 104 27.8865C103.28 27.8865 102.686 28.1325 102.218 28.6245C101.75 29.1045 101.516 29.7525 101.516 30.5685C101.516 31.3845 101.75 32.0385 102.218 32.5305C102.686 33.0105 103.28 33.2505 104 33.2505ZM114.502 27.0045C114.838 26.5365 115.288 26.1825 115.852 25.9425C116.428 25.7025 117.088 25.5825 117.832 25.5825V28.1745C117.52 28.1505 117.31 28.1385 117.202 28.1385C116.398 28.1385 115.768 28.3665 115.312 28.8225C114.856 29.2665 114.628 29.9385 114.628 30.8385V35.4105H111.82V25.7265H114.502V27.0045Z" fill="white"/>
<path d="M5.91786 0.011292C3.41072 0.26306 1.35389 1.51307 0.550626 3.27544C0.209849 4.02633 0.0475739 4.64029 0.00700522 5.30726C-0.0944165 7.17122 0.911687 9.09703 2.61963 10.294C3.32958 10.7931 4.02736 11.0847 6.44526 11.9018C8.93618 12.7455 9.49602 12.9531 10.6035 13.4433C12.3439 14.2119 13.7963 15.1218 15.1756 16.3144C15.5448 16.6324 16.1047 17.2066 16.9444 18.1342C17.6219 18.8762 18.2142 19.5388 18.2548 19.6006L18.3319 19.7199L17.269 20.8904C16.0032 22.2773 15.3541 22.878 14.2953 23.6466C12.6076 24.8701 10.8794 25.7005 8.00715 26.6722C4.42494 27.8825 3.7515 28.1431 3.09023 28.5848C2.39244 29.053 1.66221 29.7818 1.24841 30.4178C0.497886 31.5706 0.181451 32.9399 0.380237 34.1811C0.445147 34.5874 0.672332 35.3383 0.834607 35.6917C1.62164 37.3878 3.50403 38.6025 5.8773 38.947C6.36412 39.0177 7.70289 39.0177 8.12886 38.947C10.0599 38.629 11.3338 38.068 12.4981 37.0124C13.7679 35.8639 14.4373 34.318 14.2791 32.8913C14.1979 32.1934 13.849 31.1466 13.4839 30.5282C13.2081 30.0556 12.7091 29.5609 12.0113 29.0706C11.845 28.9558 11.7273 28.8454 11.7476 28.8277C11.7638 28.8056 11.9991 28.6378 12.2628 28.4567C12.8835 28.0238 13.3744 27.7676 15.3501 26.84C18.0195 25.5856 19.6869 24.7243 21.2528 23.7879C21.6666 23.5406 22.121 23.2711 22.267 23.1872L22.5307 23.0326L25.4517 24.8392C31.3382 28.4832 39.6994 33.6378 40.0361 33.8277C40.953 34.3489 41.9591 34.7067 43.1194 34.932C43.5575 35.0159 43.7766 35.0291 44.7421 35.0291C45.7279 35.0335 45.9227 35.0203 46.4054 34.932C47.0951 34.8039 47.8943 34.5786 48.3933 34.371C48.7868 34.2076 49.6793 33.7438 49.7118 33.6864C49.7239 33.6687 49.4968 33.5053 49.2128 33.3242C37.387 25.7711 29.0217 20.4222 28.3645 19.9893C27.9426 19.7155 27.8818 19.658 27.9386 19.6139C27.9751 19.5874 30.681 17.8471 33.9508 15.7534C39.2572 12.3479 47.8984 6.80019 49.4359 5.81079C49.5085 5.76418 49.5779 5.7185 49.6416 5.67551C49.8923 5.50643 49.8872 5.29708 49.6266 5.14383V5.14383C47.6144 3.96449 45.2654 3.71272 42.6853 4.40177C42.0118 4.58287 41.0909 4.93181 40.4824 5.23658C40.2025 5.37351 37.9225 6.75161 35.4113 8.29755C32.9001 9.83908 28.9812 12.2508 26.7012 13.6509L22.551 16.1951L21.833 15.7711C20.125 14.7596 17.2609 13.2578 14.8835 12.1227C13.0133 11.226 12.7537 11.0935 12.0965 10.6606C11.7557 10.4354 11.4758 10.2454 11.4758 10.2322C11.4758 10.2189 11.561 10.1527 11.6705 10.0776C11.9383 9.8965 13.0093 8.726 13.2202 8.38147C13.6016 7.7631 13.8815 6.92387 13.9505 6.19065C14.0762 4.86997 13.557 3.48304 12.5143 2.35229C11.3581 1.10229 9.84897 0.351401 7.98687 0.0952158C7.47976 0.028961 6.2627 -0.0240438 5.91786 0.011292ZM7.90573 2.65265C9.21204 2.9795 10.1492 3.71272 10.6035 4.76396C10.7983 5.21008 10.8713 5.55019 10.8754 6.01397C10.8794 6.87087 10.6198 7.57317 10.0599 8.21363C9.4798 8.88059 8.72116 9.23395 7.74346 9.30021C6.75358 9.36646 6.01523 9.22512 5.24037 8.81876C4.66835 8.52282 4.27483 8.21805 3.85697 7.74101C3.00098 6.75602 2.73728 5.62528 3.13079 4.61379C3.24844 4.3046 3.63385 3.71272 3.86509 3.48304C4.27078 3.08109 4.89959 2.76307 5.57303 2.61731C6.04768 2.51572 6.15722 2.5113 6.85094 2.52897C7.32966 2.54222 7.58118 2.56872 7.90573 2.65265ZM8.75362 29.7994C10.1532 30.1705 11.1066 31.3542 11.1796 32.803C11.208 33.3595 11.1269 33.7659 10.8835 34.3047C10.7212 34.6581 10.6319 34.7862 10.3033 35.1484C9.75161 35.7491 9.2161 36.0715 8.37227 36.3145C7.78808 36.4823 7.39051 36.5265 6.69678 36.5C6.02334 36.4779 5.69068 36.4072 5.13489 36.1775C4.33163 35.8419 3.55271 34.9585 3.31335 34.1148C3.18759 33.6643 3.22005 33.0459 3.39449 32.56C3.90971 31.1245 5.39047 29.954 6.99294 29.7155C7.43513 29.6492 8.35604 29.6934 8.75362 29.7994Z" fill="white"/>
</svg>
