<svg width="53" height="54" viewBox="0 0 53 54" fill="none" xmlns="http://www.w3.org/2000/svg">
<path d="M26.1789 0.654541C11.7208 0.654541 0 12.3756 0 26.8335C0 41.2909 11.7208 53.0133 26.1789 53.0133C40.6371 53.0133 52.3588 41.2913 52.3588 26.8335C52.3584 12.3756 40.6371 0.654541 26.1789 0.654541ZM35.1195 17.4006C35.1195 17.6504 34.9172 17.8532 34.6669 17.8532H28.2938V21.2785H34.6664C34.9167 21.2785 35.1191 21.4813 35.1191 21.7311V28.1032C35.1191 28.3535 34.9167 28.5558 34.6664 28.5558H28.7465V42.5393C28.7465 42.7896 28.5441 42.992 28.2938 42.992H22.2711C22.0208 42.992 21.8184 42.7896 21.8184 42.5393V28.5563H17.6915C17.4412 28.5563 17.2388 28.354 17.2388 28.1036V21.7316C17.2388 21.4817 17.4412 21.2789 17.6915 21.2789H21.8184V18.6952C21.8184 18.6581 21.823 18.6223 21.8311 18.5879C21.8347 14.9073 22.6219 10.6967 28.6519 10.6777C28.665 10.6768 28.679 10.6759 28.6926 10.6759H34.6664C34.9167 10.6759 35.1191 10.8787 35.1191 11.1286L35.1195 17.4006Z" fill="black"/>
</svg>
