<svg width="53" height="53" viewBox="0 0 53 53" fill="none" xmlns="http://www.w3.org/2000/svg">
<path d="M43.3791 13.0081C43.3791 13.4014 43.3005 13.7908 43.1484 14.1541C42.9962 14.5175 42.7727 14.8476 42.4916 15.1257C42.2102 15.4037 41.876 15.6243 41.5082 15.7748C41.1407 15.9253 40.7467 16.0028 40.3488 16.0028C39.9509 16.0028 39.5569 15.9253 39.1891 15.7748C38.8216 15.6243 38.4874 15.4037 38.206 15.1257C37.9246 14.8476 37.7014 14.5175 37.5492 14.1541C37.3968 13.7908 37.3185 13.4014 37.3185 13.0081C37.3185 12.2139 37.6376 11.4522 38.206 10.8906C38.7744 10.329 39.5451 10.0135 40.3488 10.0135C41.1525 10.0135 41.9232 10.329 42.4916 10.8906C43.0597 11.4522 43.3791 12.2139 43.3791 13.0081ZM53 26.526V26.5648L52.8265 37.4179C52.7824 41.3319 51.1893 45.0735 48.3888 47.8414C45.5886 50.6097 41.8027 52.1846 37.8421 52.2292L26.8206 52.3974H26.7813L15.799 52.226C11.8383 52.1823 8.05227 50.6081 5.25118 47.8408C2.45005 45.0732 0.856418 41.3319 0.81134 37.4179L0.641174 26.526V26.4872L0.814613 15.6341C0.858823 11.72 2.45162 7.97845 5.25213 5.21031C8.05263 2.44213 11.8383 0.867243 15.799 0.822712L26.8206 0.654541H26.8598L37.8421 0.825946C41.8027 0.869636 45.5889 2.44368 48.3898 5.21125C51.191 7.97881 52.7847 11.72 52.8298 15.6341L53 26.526ZM48.1241 26.526L47.9539 15.7085C47.9231 13.0479 46.84 10.5048 44.9364 8.6233C43.0325 6.74186 40.4591 5.6715 37.7669 5.64126L26.8206 5.4731L15.8743 5.64126C13.182 5.6715 10.6087 6.74186 8.70479 8.6233C6.80096 10.5048 5.71786 13.0479 5.68726 15.7085L5.51709 26.526L5.68726 37.3435C5.71786 40.004 6.80096 42.5472 8.70479 44.4287C10.6087 46.3102 13.182 47.3803 15.8743 47.4107L26.8206 47.5788L37.7669 47.4107C40.4591 47.3803 43.0325 46.3102 44.9364 44.4287C46.84 42.5472 47.9231 40.004 47.9539 37.3435L48.1241 26.526ZM40.2637 26.526C40.2637 30.0494 38.8474 33.4285 36.3263 35.9199C33.8053 38.4113 30.3859 39.811 26.8206 39.811C23.2552 39.811 19.8359 38.4113 17.3148 35.9199C14.7938 33.4285 13.3774 30.0494 13.3774 26.526C13.3774 23.0026 14.7938 19.6235 17.3148 17.132C19.8359 14.6406 23.2552 13.241 26.8206 13.241C30.3859 13.241 33.8053 14.6406 36.3263 17.132C38.8474 19.6235 40.2637 23.0026 40.2637 26.526ZM35.3878 26.526C35.3878 24.2805 34.4853 22.127 32.8785 20.5393C31.2718 18.9515 29.0927 18.0595 26.8206 18.0595C24.5484 18.0595 22.3693 18.9515 20.7626 20.5393C19.156 22.127 18.2534 24.2805 18.2534 26.526C18.2534 28.7714 19.156 30.9248 20.7626 32.5126C22.3693 34.1005 24.5484 34.9924 26.8206 34.9924C29.0927 34.9924 31.2718 34.1005 32.8785 32.5126C34.4853 30.9248 35.3878 28.7714 35.3878 26.526Z" fill="black"/>
</svg>
