<svg width="139" height="47" viewBox="0 0 139 47" fill="none" xmlns="http://www.w3.org/2000/svg">
<path d="M74.8164 17.216C73.8204 17.216 72.8544 17.084 71.9184 16.82C70.9944 16.544 70.2504 16.19 69.6864 15.758L70.6764 13.562C71.2164 13.958 71.8584 14.276 72.6024 14.516C73.3464 14.756 74.0904 14.876 74.8344 14.876C75.6624 14.876 76.2744 14.756 76.6704 14.516C77.0664 14.264 77.2644 13.934 77.2644 13.526C77.2644 13.226 77.1444 12.98 76.9044 12.788C76.6764 12.584 76.3764 12.422 76.0044 12.302C75.6444 12.182 75.1524 12.05 74.5284 11.906C73.5684 11.678 72.7824 11.45 72.1704 11.222C71.5584 10.994 71.0304 10.628 70.5864 10.124C70.1544 9.62 69.9384 8.948 69.9384 8.108C69.9384 7.376 70.1364 6.716 70.5324 6.128C70.9284 5.528 71.5224 5.054 72.3144 4.706C73.1184 4.358 74.0964 4.184 75.2484 4.184C76.0524 4.184 76.8384 4.28 77.6064 4.472C78.3744 4.664 79.0464 4.94 79.6224 5.3L78.7224 7.514C77.5584 6.854 76.3944 6.524 75.2304 6.524C74.4144 6.524 73.8084 6.656 73.4124 6.92C73.0284 7.184 72.8364 7.532 72.8364 7.964C72.8364 8.396 73.0584 8.72 73.5024 8.936C73.9584 9.14 74.6484 9.344 75.5724 9.548C76.5324 9.776 77.3184 10.004 77.9304 10.232C78.5424 10.46 79.0644 10.82 79.4964 11.312C79.9404 11.804 80.1624 12.47 80.1624 13.31C80.1624 14.03 79.9584 14.69 79.5504 15.29C79.1544 15.878 78.5544 16.346 77.7504 16.694C76.9464 17.042 75.9684 17.216 74.8164 17.216ZM86.8349 14.894C87.3389 14.894 87.7829 14.822 88.1669 14.678C88.5629 14.522 88.9289 14.282 89.2649 13.958L90.7589 15.578C89.8469 16.622 88.5149 17.144 86.7629 17.144C85.6709 17.144 84.7049 16.934 83.8649 16.514C83.0249 16.082 82.3769 15.488 81.9209 14.732C81.4649 13.976 81.2369 13.118 81.2369 12.158C81.2369 11.21 81.4589 10.358 81.9029 9.602C82.3589 8.834 82.9769 8.24 83.7569 7.82C84.5489 7.388 85.4369 7.172 86.4209 7.172C87.3449 7.172 88.1849 7.37 88.9409 7.766C89.6969 8.15 90.2969 8.714 90.7409 9.458C91.1969 10.19 91.4249 11.06 91.4249 12.068L84.2609 13.454C84.4649 13.934 84.7829 14.294 85.2149 14.534C85.6589 14.774 86.1989 14.894 86.8349 14.894ZM86.4209 9.296C85.7129 9.296 85.1369 9.524 84.6929 9.98C84.2489 10.436 84.0149 11.066 83.9909 11.87L88.7069 10.952C88.5749 10.448 88.3049 10.046 87.8969 9.746C87.4889 9.446 86.9969 9.296 86.4209 9.296ZM95.9944 8.594C96.3304 8.126 96.7804 7.772 97.3444 7.532C97.9204 7.292 98.5804 7.172 99.3244 7.172V9.764C99.0124 9.74 98.8024 9.728 98.6944 9.728C97.8904 9.728 97.2604 9.956 96.8044 10.412C96.3484 10.856 96.1204 11.528 96.1204 12.428V17H93.3124V7.316H95.9944V8.594ZM106.88 7.172C108.08 7.172 109.046 7.532 109.778 8.252C110.522 8.972 110.894 10.04 110.894 11.456V17H108.086V11.888C108.086 11.12 107.918 10.55 107.582 10.178C107.246 9.794 106.76 9.602 106.124 9.602C105.416 9.602 104.852 9.824 104.432 10.268C104.012 10.7 103.802 11.348 103.802 12.212V17H100.994V3.644H103.802V8.324C104.174 7.952 104.624 7.67 105.152 7.478C105.68 7.274 106.256 7.172 106.88 7.172ZM113.439 7.316H116.247V17H113.439V7.316ZM114.843 5.966C114.327 5.966 113.907 5.816 113.583 5.516C113.259 5.216 113.097 4.844 113.097 4.4C113.097 3.956 113.259 3.584 113.583 3.284C113.907 2.984 114.327 2.834 114.843 2.834C115.359 2.834 115.779 2.978 116.103 3.266C116.427 3.554 116.589 3.914 116.589 4.346C116.589 4.814 116.427 5.204 116.103 5.516C115.779 5.816 115.359 5.966 114.843 5.966ZM118.853 7.316H121.661V17H118.853V7.316ZM120.257 5.966C119.741 5.966 119.321 5.816 118.997 5.516C118.673 5.216 118.511 4.844 118.511 4.4C118.511 3.956 118.673 3.584 118.997 3.284C119.321 2.984 119.741 2.834 120.257 2.834C120.773 2.834 121.193 2.978 121.517 3.266C121.841 3.554 122.003 3.914 122.003 4.346C122.003 4.814 121.841 5.204 121.517 5.516C121.193 5.816 120.773 5.966 120.257 5.966Z" fill="black"/>
<path d="M79.5048 33.8547L77.8128 35.6187V38.8047H74.9148V26.2047H77.8128V32.0907L83.3928 26.2047H86.6328L81.4128 31.8207L86.9388 38.8047H83.5368L79.5048 33.8547ZM92.2448 38.9487C91.2248 38.9487 90.3068 38.7387 89.4908 38.3187C88.6868 37.8867 88.0568 37.2927 87.6008 36.5367C87.1448 35.7807 86.9168 34.9227 86.9168 33.9627C86.9168 33.0027 87.1448 32.1447 87.6008 31.3887C88.0568 30.6327 88.6868 30.0447 89.4908 29.6247C90.3068 29.1927 91.2248 28.9767 92.2448 28.9767C93.2648 28.9767 94.1768 29.1927 94.9808 29.6247C95.7848 30.0447 96.4148 30.6327 96.8708 31.3887C97.3268 32.1447 97.5548 33.0027 97.5548 33.9627C97.5548 34.9227 97.3268 35.7807 96.8708 36.5367C96.4148 37.2927 95.7848 37.8867 94.9808 38.3187C94.1768 38.7387 93.2648 38.9487 92.2448 38.9487ZM92.2448 36.6447C92.9648 36.6447 93.5528 36.4047 94.0088 35.9247C94.4768 35.4327 94.7108 34.7787 94.7108 33.9627C94.7108 33.1467 94.4768 32.4987 94.0088 32.0187C93.5528 31.5267 92.9648 31.2807 92.2448 31.2807C91.5248 31.2807 90.9308 31.5267 90.4628 32.0187C89.9948 32.4987 89.7608 33.1467 89.7608 33.9627C89.7608 34.7787 89.9948 35.4327 90.4628 35.9247C90.9308 36.4047 91.5248 36.6447 92.2448 36.6447ZM105.264 38.3367C104.988 38.5407 104.646 38.6967 104.238 38.8047C103.842 38.9007 103.428 38.9487 102.996 38.9487C101.832 38.9487 100.938 38.6547 100.314 38.0667C99.6897 37.4787 99.3777 36.6147 99.3777 35.4747V26.9787H102.186V29.3367H104.58V31.4967H102.186V35.4387C102.186 35.8467 102.288 36.1647 102.492 36.3927C102.696 36.6087 102.99 36.7167 103.374 36.7167C103.806 36.7167 104.19 36.5967 104.526 36.3567L105.264 38.3367ZM110.324 38.9487C109.232 38.9487 108.38 38.6607 107.768 38.0847C107.156 37.4967 106.85 36.6687 106.85 35.6007V25.4487H109.658V35.4387C109.658 35.8467 109.76 36.1647 109.964 36.3927C110.18 36.6087 110.48 36.7167 110.864 36.7167C111.008 36.7167 111.152 36.6987 111.296 36.6627C111.452 36.6267 111.572 36.5847 111.656 36.5367L111.782 38.7147C111.314 38.8707 110.828 38.9487 110.324 38.9487ZM113.16 29.1207H115.968V38.8047H113.16V29.1207ZM114.564 27.7707C114.048 27.7707 113.628 27.6207 113.304 27.3207C112.98 27.0207 112.818 26.6487 112.818 26.2047C112.818 25.7607 112.98 25.3887 113.304 25.0887C113.628 24.7887 114.048 24.6387 114.564 24.6387C115.08 24.6387 115.5 24.7827 115.824 25.0707C116.148 25.3587 116.31 25.7187 116.31 26.1507C116.31 26.6187 116.148 27.0087 115.824 27.3207C115.5 27.6207 115.08 27.7707 114.564 27.7707ZM128.402 29.1207V38.8047H125.72V37.6887C125.024 38.5287 124.016 38.9487 122.696 38.9487C121.784 38.9487 120.956 38.7447 120.212 38.3367C119.48 37.9287 118.904 37.3467 118.484 36.5907C118.064 35.8347 117.854 34.9587 117.854 33.9627C117.854 32.9667 118.064 32.0907 118.484 31.3347C118.904 30.5787 119.48 29.9967 120.212 29.5887C120.956 29.1807 121.784 28.9767 122.696 28.9767C123.932 28.9767 124.898 29.3667 125.594 30.1467V29.1207H128.402ZM123.182 36.6447C123.89 36.6447 124.478 36.4047 124.946 35.9247C125.414 35.4327 125.648 34.7787 125.648 33.9627C125.648 33.1467 125.414 32.4987 124.946 32.0187C124.478 31.5267 123.89 31.2807 123.182 31.2807C122.462 31.2807 121.868 31.5267 121.4 32.0187C120.932 32.4987 120.698 33.1467 120.698 33.9627C120.698 34.7787 120.932 35.4327 121.4 35.9247C121.868 36.4047 122.462 36.6447 123.182 36.6447ZM133.684 30.3987C134.02 29.9307 134.47 29.5767 135.034 29.3367C135.61 29.0967 136.27 28.9767 137.014 28.9767V31.5687C136.702 31.5447 136.492 31.5327 136.384 31.5327C135.58 31.5327 134.95 31.7607 134.494 32.2167C134.038 32.6607 133.81 33.3327 133.81 34.2327V38.8047H131.002V29.1207H133.684V30.3987Z" fill="black"/>
<path d="M7.35731 0.0134176C4.24033 0.311602 1.6832 1.79206 0.684559 3.87936C0.260892 4.76868 0.0591457 5.49583 0.00870915 6.28576C-0.117382 8.49337 1.13344 10.7742 3.25682 12.1919C4.13946 12.783 5.00697 13.1283 8.01299 14.0961C11.1098 15.0953 11.8058 15.3412 13.1827 15.9218C15.3465 16.8321 17.1521 17.9097 18.8669 19.3222C19.3259 19.6988 20.0219 20.3789 21.066 21.4775C21.9083 22.3563 22.6446 23.141 22.6951 23.2143L22.7909 23.3555L21.4695 24.7418C19.8958 26.3844 19.0889 27.0959 17.7725 28.0062C15.6743 29.4552 13.5257 30.4387 9.95479 31.5896C5.50125 33.023 4.664 33.3316 3.84189 33.8548C2.97438 34.4093 2.06652 35.2724 1.55207 36.0258C0.618991 37.3911 0.225586 39.0128 0.472725 40.4828C0.553424 40.9641 0.835868 41.8534 1.03761 42.2719C2.01608 44.2808 4.35634 45.7194 7.30688 46.1274C7.91211 46.2111 9.57652 46.2111 10.1061 46.1274C12.5069 45.7508 14.0906 45.0864 15.5381 43.8361C17.1168 42.476 17.949 40.645 17.7523 38.9553C17.6514 38.1287 17.2177 36.8889 16.7637 36.1565C16.4208 35.5968 15.8004 35.0109 14.9329 34.4302C14.7261 34.2942 14.5798 34.1634 14.605 34.1425C14.6252 34.1163 14.9177 33.9175 15.2456 33.7031C16.0173 33.1904 16.6275 32.887 19.0838 31.7884C22.4025 30.3027 24.4755 29.2826 26.4223 28.1736C26.9368 27.8806 27.5017 27.5615 27.6832 27.4621L28.0111 27.279L31.6425 29.4186C38.9608 33.7344 49.3558 39.8394 49.7744 40.0643C50.9143 40.6816 52.1651 41.1054 53.6076 41.3721C54.1523 41.4715 54.4247 41.4872 55.6251 41.4872C56.8507 41.4925 57.0928 41.4768 57.693 41.3721C58.5504 41.2204 59.544 40.9536 60.1644 40.7078C60.6536 40.5142 61.7632 39.9649 61.8035 39.8969C61.8187 39.876 61.5362 39.6824 61.1832 39.468C46.4809 30.5224 36.0809 24.1873 35.2638 23.6746C34.7393 23.3503 34.6637 23.2823 34.7343 23.23C34.7797 23.1986 38.1438 21.1374 42.209 18.6578C48.8061 14.6245 59.549 8.05394 61.4606 6.88213C61.5504 6.82719 61.6363 6.77333 61.7152 6.72263C62.0267 6.52253 62.0206 6.27312 61.6976 6.0922V6.0922C59.196 4.69544 56.2757 4.39726 53.0679 5.21334C52.2307 5.42782 51.0858 5.8411 50.3292 6.20206C49.9812 6.36423 47.1467 7.99639 44.0247 9.82735C40.9027 11.6531 36.0305 14.5094 33.1959 16.1677L28.0363 19.1809L27.1436 18.6787C25.0202 17.4808 21.4594 15.7021 18.5038 14.3577C16.1787 13.2957 15.8559 13.1388 15.0388 12.6261C14.6151 12.3593 14.2671 12.1344 14.2671 12.1187C14.2671 12.103 14.373 12.0245 14.5092 11.9356C14.8421 11.7211 16.1736 10.3348 16.4359 9.92675C16.91 9.19437 17.258 8.20042 17.3437 7.33202C17.5001 5.76786 16.8545 4.12523 15.5583 2.78601C14.1209 1.30555 12.2446 0.41623 9.92958 0.112814C9.29912 0.0343441 7.78602 -0.0284328 7.35731 0.0134176ZM9.8287 3.14174C11.4528 3.52886 12.6178 4.39725 13.1827 5.64231C13.4248 6.17067 13.5156 6.57348 13.5207 7.12277C13.5257 8.13764 13.2029 8.96942 12.5069 9.72796C11.7856 10.5179 10.8425 10.9364 9.62696 11.0149C8.3963 11.0933 7.47836 10.9259 6.51502 10.4446C5.80387 10.0942 5.31463 9.73319 4.79514 9.16821C3.73093 8.00163 3.40309 6.66241 3.89232 5.46444C4.03859 5.09825 4.51774 4.39725 4.80522 4.12523C5.30959 3.64918 6.09136 3.27252 6.9286 3.09989C7.51871 2.97957 7.65489 2.97434 8.51735 2.99526C9.1125 3.01096 9.42521 3.04235 9.8287 3.14174ZM10.8828 35.2934C12.6229 35.7328 13.8081 37.1348 13.8989 38.8507C13.9342 39.5098 13.8334 39.9911 13.5307 40.6293C13.329 41.0478 13.218 41.1995 12.8095 41.6285C12.1236 42.3399 11.4578 42.7218 10.4087 43.0095C9.68244 43.2083 9.18816 43.2607 8.32569 43.2293C7.48845 43.2031 7.07487 43.1194 6.38389 42.8474C5.38524 42.4498 4.41686 41.4035 4.11929 40.4044C3.96293 39.8708 4.00328 39.1384 4.22016 38.5629C4.8607 36.8628 6.70164 35.4765 8.69388 35.194C9.24364 35.1155 10.3885 35.1678 10.8828 35.2934Z" fill="black"/>
</svg>
